<svg width="67" height="21" viewBox="0 0 67 21" fill="none" xmlns="http://www.w3.org/2000/svg">
<g id="Frame" clip-path="url(#clip0_79_1522)">
<path id="text-0" d="M17.4779 18.3006L19.1963 18.5941L19.1721 19.9395H10.4103L10.2651 19.1567C10.8298 18.7164 11.4349 18.3332 12.0804 18.0071L11.33 15.9767H6.39242L5.54528 18.2517L7.50581 18.5941L7.4816 19.9395H0.535056L0.389832 19.1567C0.938456 18.7164 1.61617 18.2924 2.42297 17.8847L7.4332 5.3115L7.02173 4.16181L11.4269 3.06104L17.4779 18.3006ZM7.21536 13.7263H10.5071L8.86123 9.20089L7.21536 13.7263ZM31.3467 8.14904L31.371 9.44551L30.306 10.1794L27.3773 17.3711L26.2881 19.8661C25.6104 20.0618 24.7149 20.1597 23.6015 20.1597C22.9399 20.1597 22.3832 20.1189 21.9314 20.0374L18.4218 10.5952L16.8486 9.51889V8.14904H22.7785L24.5696 13.9709L24.9085 15.5854H25.1747C25.4974 13.2044 25.7476 10.7257 25.9251 8.14904H31.3467ZM35.9213 6.65689C34.6143 6.0535 33.5412 5.22181 32.7022 4.16181C33.396 2.80827 34.2916 1.7075 35.3888 0.859497C36.6152 1.56073 37.6317 2.50658 38.4385 3.69704C37.8253 4.90381 36.9863 5.89043 35.9213 6.65689ZM38.0997 8.93181V17.7869C38.7935 18.0804 39.3744 18.3984 39.8424 18.7409L39.8181 19.9395H31.4194L31.3952 19.0834C31.9115 18.7572 32.5247 18.4555 33.2347 18.1783V10.2527L31.4194 9.78797L31.371 8.58935C32.92 8.03489 34.6869 7.71689 36.6716 7.63535L38.0997 8.93181ZM52.9319 9.76351L49.9064 13.5061C48.7123 12.4624 47.7441 11.8672 47.0019 11.7204V17.4934C48.1314 17.9011 49.027 18.3169 49.6885 18.7409L49.6643 19.9395H40.3458L40.3216 19.0834C40.8702 18.7409 41.4753 18.4474 42.1369 18.2027V10.2527L40.3216 9.78797L40.2732 8.58935C41.8222 8.03489 43.5891 7.71689 45.5739 7.63535L47.0019 9.78797L48.6962 7.78212C49.0028 7.68427 49.3416 7.63535 49.7127 7.63535C50.4389 7.63535 51.1085 7.82615 51.7217 8.20775C52.3348 8.59261 52.7382 9.1112 52.9319 9.76351ZM66.0746 17.2487L66.1473 18.3495L62.6861 20.3554C61.5888 20.3554 60.6852 19.752 59.9752 18.5452L57.458 20.2331L56.5383 20.3064C55.4572 20.3064 54.5535 19.9836 53.8274 19.3378C53.1013 18.6952 52.7382 17.9418 52.7382 17.0775C52.7382 16.5231 52.9125 15.9735 53.261 15.4288C53.6064 14.8809 54.1179 14.4357 54.7956 14.0932L59.3459 13.9954V12.1607C59.3459 10.954 58.9829 10.1549 58.2568 9.76351C57.9018 9.79612 57.6032 9.87766 57.3612 10.0081L56.6593 12.7478L53.9 12.7723C53.6257 11.8264 53.4886 10.9132 53.4886 10.0326L53.5854 8.83397C54.6181 8.45889 55.7847 8.1572 57.0853 7.92889C58.3826 7.70058 59.4266 7.58643 60.2173 7.58643C61.7825 7.58643 63.0169 8.18981 63.9205 9.39658C64.1141 9.69012 64.2109 10.4403 64.2109 11.647V16.5394C64.2109 17.0449 64.4046 17.2977 64.7918 17.2977L65.5906 17.2732L66.0746 17.2487ZM57.4822 16.7106C57.4822 17.1183 57.6032 17.4607 57.8453 17.738L59.3459 17.42V15.5854C58.1035 15.5854 57.4822 15.9604 57.4822 16.7106Z" fill="#DB6B97"/>
</g>
<defs>
<clipPath id="clip0_79_1522">
<rect width="65.7623" height="19.4959" fill="white" transform="translate(0.387573 0.859497)"/>
</clipPath>
</defs>
</svg>
